<?xml version="1.0" encoding="UTF-8"?>
<!DOCTYPE svg PUBLIC "-//W3C//DTD SVG 1.1//EN" "http://www.w3.org/Graphics/SVG/1.1/DTD/svg11.dtd">
<!-- Creator: CorelDRAW -->
<svg xmlns="http://www.w3.org/2000/svg" xml:space="preserve" width="8.5in" height="11in" version="1.1" style="shape-rendering:geometricPrecision; text-rendering:geometricPrecision; image-rendering:optimizeQuality; fill-rule:evenodd; clip-rule:evenodd"
viewBox="0 0 8500 11000"
 xmlns:xlink="http://www.w3.org/1999/xlink"
 xmlns:xodm="http://www.corel.com/coreldraw/odm/2003">
 <defs>
  <style type="text/css">
   <![CDATA[
    .fil0 {fill:#00A755}
    .fil1 {fill:white;fill-rule:nonzero}
   ]]>
  </style>
 </defs>
 <g id="Layer_x0020_1">
  <metadata id="CorelCorpID_0Corel-Layer"/>
  <path id="Oval" class="fil0" d="M4250 5572.92c146.7,0 265.63,-118.93 265.63,-265.63 0,-146.7 -118.93,-265.63 -265.63,-265.63 -146.7,0 -265.63,118.93 -265.63,265.63 0,146.7 118.93,265.63 265.63,265.63z"/>
  <g id="__x201c_">
   <path class="fil1" d="M4371.61 5370.7c0,13.02 -4.82,24.09 -14.45,33.2 -9.63,9.11 -21.74,13.67 -36.33,13.67 -16.15,0 -29.69,-5.73 -40.63,-17.19 -10.94,-11.46 -16.41,-27.86 -16.41,-49.22 0,-42.19 10.81,-74.87 32.42,-98.05 21.61,-23.18 45.44,-36.07 71.48,-38.67l0 36.72c-16.67,3.65 -30.47,13.02 -41.41,28.12 -10.94,15.11 -16.67,30.99 -17.19,47.66 3.65,-2.6 8.85,-3.91 15.63,-3.91 13.54,0 24.74,4.3 33.59,12.89 8.85,8.59 13.28,20.18 13.28,34.77zm-133.59 0c0,13.02 -4.81,24.09 -14.45,33.2 -9.63,9.11 -21.74,13.67 -36.33,13.67 -16.15,0 -29.69,-5.73 -40.63,-17.19 -10.94,-11.46 -16.41,-27.86 -16.41,-49.22 0,-42.19 10.81,-74.87 32.42,-98.05 21.61,-23.18 45.44,-36.07 71.48,-38.67l0 36.72c-16.67,3.65 -30.47,13.02 -41.41,28.12 -10.94,15.11 -16.67,30.99 -17.19,47.66 4.17,-2.6 9.38,-3.91 15.63,-3.91 13.54,0 24.74,4.3 33.59,12.89 8.85,8.59 13.28,20.18 13.28,34.77z"/>
  </g>
 </g>
</svg>
